<svg width="30" height="18" viewBox="0 0 30 18" fill="none" xmlns="http://www.w3.org/2000/svg">
<path d="M16.112 0.272121C15.2569 0.691299 14.5368 1.87398 15.752 3.44589C17.4622 5.58669 17.4622 9 17.4622 9C17.4622 9 17.4622 12.4133 15.752 14.5541C14.5368 16.126 15.2569 17.3087 16.112 17.7279C17.6122 18.4764 18.3473 17.6381 19.5624 15.7368C20.6126 14.105 21.0026 11.8744 21.1526 10.4372L22.3528 11.6348C24.048 13.3415 25.6832 14.9883 26.8234 16.1111C27.5134 16.7847 28.6086 16.7847 29.2537 16.1111L29.4937 15.9015C30.1688 15.2278 30.1688 14.12 29.4937 13.4463L25.0231 9C26.7183 7.27838 28.3535 5.64658 29.4937 4.50881C30.1688 3.83513 30.1688 2.74228 29.4937 2.05363L29.2537 1.85901C28.6086 1.17036 27.5134 1.17036 26.8234 1.85901L22.3528 6.32026L21.1376 7.50294C21.0026 6.08073 20.5976 3.88004 19.5624 2.26322C18.3473 0.361945 17.6122 -0.47641 16.112 0.272121ZM4.94132 9C4.94132 7.97272 4.27092 7.04168 4.94132 6.36517C5.61916 5.68115 6.55766 6.62231 7.59095 6.62231C8.63179 6.62231 9.57024 5.68115 10.2462 6.36517C10.9147 7.04168 9.97184 7.97272 9.97184 9C9.97184 10.0273 10.9147 10.9583 10.2462 11.6348C9.57024 12.3188 8.63179 9.52837 7.59095 9.52837C6.55766 9.52837 5.61916 12.3188 4.94132 11.6348C4.27092 10.9583 4.94132 10.0273 4.94132 9ZM15.1819 9C15.1819 4.80822 11.7915 1.42486 7.59095 1.42486C5.5777 1.42486 3.64692 2.22295 2.22334 3.64357C0.799758 5.06418 0 6.99095 0 9C0 11.0091 0.799758 12.9358 2.22334 14.3564C3.64692 15.777 5.5777 16.5751 7.59095 16.5751C11.7915 16.5751 15.1819 13.1918 15.1819 9Z" fill="#008076"/>
</svg>
